<svg width="351" height="373" viewBox="0 0 351 373" fill="none" xmlns="http://www.w3.org/2000/svg">
<path d="M278.589 128.385C278.589 128.385 275.66 126.488 275.144 120.804C274.628 115.121 281.352 110.985 287.21 112.191C293.069 113.398 299.268 117.009 297.545 125.115C295.823 133.22 286.677 133.675 283.844 132.407C281.859 131.402 280.078 130.038 278.589 128.385Z" fill="#2B2B2B" stroke="#2B2B2B" stroke-linecap="round" stroke-linejoin="round"/>
<path d="M281.387 117.184C281.387 117.184 285.007 113.914 287.42 114.771" stroke="#2B2B2B" stroke-linecap="round" stroke-linejoin="round"/>
<path d="M292.448 116.747C292.494 117.08 292.437 117.42 292.285 117.72C292.133 118.021 291.893 118.268 291.597 118.428C291.301 118.588 290.963 118.654 290.629 118.617C290.294 118.58 289.979 118.441 289.725 118.22C289.471 117.999 289.291 117.705 289.209 117.379C289.126 117.053 289.145 116.709 289.264 116.394C289.382 116.079 289.594 115.807 289.871 115.615C290.147 115.424 290.476 115.321 290.813 115.322C291.218 115.295 291.618 115.43 291.924 115.697C292.23 115.964 292.419 116.342 292.448 116.747Z" fill="#F4F4F4" stroke="#2B2B2B" stroke-linecap="round" stroke-linejoin="round"/>
<path d="M279.612 117.385C279.612 117.901 279.043 118.312 278.335 118.312C277.627 118.312 277.05 117.901 277.05 117.385C277.05 116.869 277.627 116.458 278.335 116.458C279.043 116.458 279.612 116.878 279.612 117.385Z" fill="#F4F4F4" stroke="#2B2B2B" stroke-linecap="round" stroke-linejoin="round"/>
<path d="M290.918 112.769C290.918 112.769 287.988 110.871 287.473 105.188C286.957 99.5041 293.672 95.3595 299.53 96.5661C305.389 97.7728 311.597 101.393 309.874 109.49C308.152 117.586 298.997 118.05 296.164 116.791C294.183 115.784 292.405 114.42 290.918 112.769Z" fill="#2B2B2B" stroke="#2B2B2B" stroke-linecap="round" stroke-linejoin="round"/>
<path d="M293.672 101.568C293.672 101.568 297.292 98.2886 299.705 99.1543" stroke="#2B2B2B" stroke-linecap="round" stroke-linejoin="round"/>
<path d="M303.098 102.547C304.006 102.547 304.742 101.909 304.742 101.122C304.742 100.335 304.006 99.6964 303.098 99.6964C302.19 99.6964 301.454 100.335 301.454 101.122C301.454 101.909 302.19 102.547 303.098 102.547Z" fill="#F4F4F4" stroke="#2B2B2B" stroke-linecap="round" stroke-linejoin="round"/>
<path d="M291.906 101.769C291.906 102.276 291.329 102.696 290.62 102.696C289.912 102.696 289.335 102.276 289.335 101.769C289.335 101.262 289.912 100.842 290.62 100.842C291.329 100.842 291.906 101.253 291.906 101.769Z" fill="#F4F4F4" stroke="#2B2B2B" stroke-linecap="round" stroke-linejoin="round"/>
<path d="M313.005 86.668C312.606 86.6699 312.217 86.5443 311.894 86.3095C311.688 86.164 311.513 85.9793 311.379 85.7659C311.244 85.5526 311.153 85.3147 311.111 85.0661C311.069 84.8175 311.076 84.563 311.132 84.3172C311.189 84.0715 311.293 83.8392 311.439 83.6339L319.685 72.0657C319.99 71.6763 320.434 71.4196 320.924 71.3489C321.413 71.2781 321.912 71.3989 322.315 71.6859C322.718 71.973 322.995 72.4044 323.088 72.8904C323.181 73.3764 323.083 73.8796 322.815 74.2954L314.605 85.8548C314.425 86.1108 314.185 86.3187 313.906 86.4605C313.627 86.6023 313.317 86.6735 313.005 86.668Z" fill="#F4F4F4" stroke="#2B2B2B" stroke-linecap="round" stroke-linejoin="round"/>
<path d="M315.934 80.0839L253.485 71.9084L350 123.882L315.934 80.0839Z" fill="#285E67" stroke="#2B2B2B" stroke-linecap="round" stroke-linejoin="round"/>
<path d="M313.888 81.4304L284.482 81.2818" stroke="#2B2B2B" stroke-linecap="round" stroke-linejoin="round"/>
<path d="M312.401 84.4471L307.889 88.6354" stroke="#2B2B2B" stroke-linecap="round" stroke-linejoin="round"/>
<path d="M316.738 83.6863L322.597 93.5844" stroke="#2B2B2B" stroke-linecap="round" stroke-linejoin="round"/>
<path d="M323.795 96.8896L330.099 109.044" stroke="#2B2B2B" stroke-linecap="round" stroke-linejoin="round"/>
<path d="M287.481 89.8333L296.033 86.9828" stroke="#2B2B2B" stroke-linecap="round" stroke-linejoin="round"/>
<path d="M258.076 74.2342L277.88 76.4814" stroke="#2B2B2B" stroke-linecap="round" stroke-linejoin="round"/>
<path d="M342.104 119.694L333.999 108.143" stroke="#2B2B2B" stroke-linecap="round" stroke-linejoin="round"/>
<path d="M235.744 126.059L256.37 190.309L310.845 149.099C308.95 146.13 306.529 143.531 303.701 141.431C301.05 139.691 297.835 139.028 294.712 139.577L293.925 135.879C290.899 133.862 287.715 132.093 284.403 130.589C280.434 129.006 275.152 126.628 274.357 127.423C273.763 127.921 273.015 128.199 272.241 128.21C272.241 128.21 270.125 125.307 269.067 124.774C268.009 124.24 257.437 123.454 253.205 123.454C250.825 123.384 248.492 124.131 246.595 125.57C246.595 125.57 243.972 123.454 242.634 123.454C241.296 123.454 235.744 126.059 235.744 126.059Z" fill="#285E67" stroke="#2B2B2B" stroke-linecap="round" stroke-linejoin="round"/>
<path d="M268.542 126.593C267.484 126.059 256.904 125.272 252.681 125.272C250.3 125.203 247.968 125.95 246.07 127.388C246.07 127.388 243.447 125.272 242.101 125.272C241.13 125.272 237.86 126.706 236.207 127.458L256.379 190.309L309.673 149.974C307.902 147.389 305.706 145.125 303.177 143.276C300.525 141.537 297.311 140.874 294.188 141.422L293.392 137.724C290.37 135.704 287.188 133.935 283.879 132.433C279.909 130.851 274.619 128.464 273.832 129.259C273.24 129.762 272.492 130.043 271.716 130.055C271.716 130.055 269.6 127.117 268.542 126.593Z" fill="#FCE2D7" stroke="#2B2B2B" stroke-linecap="round" stroke-linejoin="round"/>
<path d="M303.176 143.25L298.009 149.082" stroke="#2B2B2B" stroke-linecap="round" stroke-linejoin="round"/>
<path d="M290.244 154.608L288.426 156.978" stroke="#2B2B2B" stroke-linecap="round" stroke-linejoin="round"/>
<path d="M294.905 148.522L291.407 153.087" stroke="#2B2B2B" stroke-linecap="round" stroke-linejoin="round"/>
<path d="M273.325 136.998L272.634 139.219" stroke="#2B2B2B" stroke-linecap="round" stroke-linejoin="round"/>
<path d="M275.17 131.043L274.059 134.628" stroke="#2B2B2B" stroke-linecap="round" stroke-linejoin="round"/>
<path d="M246.07 127.388L247.828 136.963" stroke="#2B2B2B" stroke-linecap="round" stroke-linejoin="round"/>
<path d="M250.643 133.019L251.491 140.906" stroke="#2B2B2B" stroke-linecap="round" stroke-linejoin="round"/>
<path d="M217.268 188.106L209.827 189.994L208.778 185.824L206.95 178.627L203.61 165.433L201.8 158.237L198.46 145.042L196.65 137.846L193.301 124.643L191.482 117.455L188.151 104.252L186.332 97.0645L183.831 87.1839L191.281 85.304L191.989 88.102L193.808 95.2982L197.148 108.493L198.967 115.689L202.298 128.892L204.117 136.08L207.457 149.283L209.276 156.479L212.607 169.674L214.426 176.861L217.268 188.106Z" fill="#285E67" stroke="#2B2B2B" stroke-linecap="round" stroke-linejoin="round"/>
<path d="M202.298 128.892L196.65 137.846L198.46 145.042L204.117 136.08L202.298 128.892ZM197.148 108.493L191.482 117.455L193.301 124.643L198.967 115.689L197.148 108.493ZM207.457 149.283L201.8 158.237L203.61 165.433L209.276 156.479L207.457 149.283ZM191.989 88.0758L186.332 97.0383L188.151 104.226L193.773 95.2982L191.989 88.0758ZM206.959 178.601L212.607 169.647L214.426 176.835L208.778 185.824L206.959 178.601Z" fill="#2B2B2B"/>
<path d="M274.269 364.802H189.226C189.226 364.802 188.431 362.424 193.196 361.103C197.961 359.783 218.833 352.106 220.949 348.941C223.065 345.775 223.861 345.767 223.065 342.593C222.269 339.419 217.25 333.849 218.571 329.643C219.891 325.437 222.278 321.703 222.54 318.276C222.742 316.385 222.469 314.473 221.745 312.715C218.747 311.022 215.908 309.061 213.263 306.856C205.096 300.194 193.861 287.865 193.152 270.132C192.094 242.108 206.898 209.065 201.608 180.778C196.318 152.492 189.707 147.193 192.357 144.054H271.051C273.675 147.228 267.082 152.518 261.8 180.778C256.519 209.039 271.314 242.108 270.256 270.132C269.591 287.847 258.355 300.176 250.145 306.856C247.498 309.058 244.66 311.019 241.663 312.715C240.939 314.473 240.666 316.385 240.868 318.276C241.139 321.703 243.491 325.411 244.837 329.643C246.184 333.875 241.139 339.419 240.343 342.593C239.547 345.767 240.343 345.767 242.459 348.941C244.575 352.115 265.455 359.783 270.221 361.103C274.986 362.424 274.269 364.802 274.269 364.802Z" stroke="#2B2B2B" stroke-linecap="round" stroke-linejoin="round"/>
<path d="M274.269 364.802H189.226C189.226 364.802 188.431 362.424 193.196 361.103C197.961 359.783 218.833 352.106 220.949 348.941C223.065 345.775 223.861 345.767 223.065 342.593C222.269 339.419 217.25 333.849 218.571 329.643C219.891 325.437 222.278 321.703 222.54 318.276C222.742 316.385 222.469 314.473 221.745 312.715C218.747 311.022 215.908 309.061 213.263 306.856H250.224C247.577 309.058 244.738 311.019 241.742 312.715C241.018 314.473 240.745 316.385 240.946 318.276C241.217 321.703 243.569 325.411 244.916 329.643C246.263 333.875 241.217 339.419 240.422 342.593C239.626 345.767 240.422 345.767 242.538 348.941C244.654 352.115 265.534 359.783 270.299 361.103C275.065 362.424 274.269 364.802 274.269 364.802Z" fill="#F4F4F4" stroke="#2B2B2B" stroke-linecap="round" stroke-linejoin="round"/>
<path d="M213.998 354.668C209.774 356.919 205.343 358.761 200.768 360.168C194.376 361.917 199.894 363.289 205.822 361.357C211.75 359.425 212.065 357.938 218.308 357.938C224.551 357.938 221.753 355.236 218.614 355.394C215.475 355.551 215.633 353.627 213.998 354.668Z" fill="#F4F4F4"/>
<path d="M236.26 315.137C236.26 315.137 224.263 317.218 226.536 316.886C228.81 316.553 232.657 318.713 237.239 317.76C238.622 319.409 239.421 321.468 239.512 323.618C239.845 327.527 231.057 324.598 227.472 331.759C223.887 338.92 230.095 339.567 232.718 341.517C235.341 343.467 235.971 345.102 233.365 346.763C230.76 348.425 229.264 342.732 226.86 345.137C224.455 347.542 228.163 350.34 230.436 350.34C232.71 350.34 237.274 349.369 237.921 345.461C238.568 341.552 242.476 337.652 242.809 331.794C242.939 329.531 242.766 327.261 242.293 325.044C241.515 321.616 239.337 319.596 239.337 316.632C239.337 313.668 237.422 314.63 236.26 315.137Z" fill="#F4F4F4"/>
<path d="M243.412 351.336C243.532 351.612 243.592 351.909 243.59 352.209C243.588 352.509 243.523 352.805 243.399 353.078C243.276 353.352 243.096 353.596 242.873 353.796C242.649 353.996 242.386 354.147 242.101 354.239C239.932 355.114 218.614 355.394 218.614 355.394C218.614 355.394 232.683 357.142 240.474 356.268C248.265 355.394 245.721 353.365 247.723 354.091C249.725 354.817 252.506 356.994 250.477 358.734C248.449 360.474 251.491 362.065 236.268 359.748C221.045 357.431 216.7 359.888 213.797 361.339C210.894 362.791 192.628 363.963 192.628 363.963H270.92C270.92 363.963 269.469 361.934 265.56 361.06C261.652 360.185 260.917 361.637 258.014 361.06C255.111 360.483 256.86 360.185 256.134 358.436C255.409 356.688 243.412 351.336 243.412 351.336Z" fill="#F4F4F4"/>
<path d="M233.497 319.413C233.497 319.413 230.926 319.15 227.708 318.766C224.49 318.381 221.01 328.296 221.526 330.229C222.042 332.161 223.843 327.78 227.577 325.979C231.311 324.178 235.446 326.364 235.945 322.246C236.443 318.127 233.497 319.413 233.497 319.413Z" fill="#F4F4F4"/>
<path d="M230.279 341.683C230.279 341.683 224.622 335.632 223.843 339.112C223.065 342.593 232.211 347.48 232.587 345.032C232.963 342.584 230.279 341.683 230.279 341.683Z" fill="#F4F4F4"/>
<path d="M235.105 350.506C235.105 350.506 230.497 351.992 227.525 350.803C224.552 349.614 223.957 350.209 220.984 351.844C218.011 353.479 219.498 354.817 228.416 354.519C237.335 354.222 242.24 352.587 241.051 351.398C239.862 350.209 240.159 348.871 235.105 350.506Z" fill="#F4F4F4"/>
<path d="M201.887 146.153H254.001" stroke="#2B2B2B" stroke-linecap="round" stroke-linejoin="round"/>
<path d="M194.516 146.153H199.579" stroke="#2B2B2B" stroke-linecap="round" stroke-linejoin="round"/>
<path d="M261.835 180.787C262.622 176.608 263.436 172.918 264.24 169.682H199.247C200.06 172.935 200.864 176.608 201.651 180.787C206.941 209.082 192.129 242.125 193.187 270.15C194.245 298.174 221.754 312.715 221.754 312.715C221.754 312.715 228.18 314.044 241.751 312.715C241.751 312.715 269.25 298.174 270.308 270.15C271.366 242.125 256.554 209.082 261.835 180.787Z" fill="#F4F4F4" stroke="#2B2B2B" stroke-linecap="round" stroke-linejoin="round"/>
<path opacity="0.19" d="M262.386 360.701C257.63 359.39 236.749 351.791 234.633 348.652C232.517 345.513 231.722 345.513 232.517 342.365C233.313 339.217 238.332 333.726 237.012 329.538C235.691 325.35 233.304 321.669 233.042 318.276C232.84 316.405 233.114 314.513 233.838 312.776C236.831 311.095 239.669 309.152 242.319 306.97C250.486 300.368 261.722 288.153 262.43 270.604C263.488 242.851 248.685 210.105 253.975 182.09C259.265 154.075 265.875 148.863 263.226 145.68H268.052C270.676 148.828 264.083 154.066 258.801 182.09C253.52 210.114 268.271 242.886 267.222 270.639C266.557 288.188 255.321 300.368 247.154 307.005C244.505 309.187 241.666 311.13 238.673 312.811C237.949 314.548 237.675 316.44 237.877 318.311C238.14 321.712 240.5 325.385 241.847 329.573C243.194 333.761 238.14 339.261 237.353 342.4C236.566 345.539 237.353 345.548 239.469 348.687C241.585 351.826 262.465 359.425 267.222 360.701C271.978 361.978 271.191 364.374 271.191 364.374H266.347C266.347 364.374 267.152 362.039 262.386 360.701Z" fill="#2A2A2A"/>
<path d="M107.034 194.567C107.034 194.567 103.186 189.137 97.7565 188.447C93.8243 188.11 89.8641 188.336 85.996 189.12C85.996 189.12 88.4793 184.372 90.7439 182.999C92.5023 181.996 94.3151 181.091 96.1739 180.289C94.9422 177.801 93.0674 175.687 90.7439 174.168C86.8966 171.685 80.5573 167.837 80.5573 167.837C80.5573 167.837 88.7066 168.511 92.5539 169.647C95.3848 170.578 98.1149 171.791 100.703 173.267C100.703 173.267 94.8186 166.928 90.0619 162.407C85.3052 157.887 75.3547 149.501 75.3547 149.501L67.8612 144.727C72.7862 146.217 77.6284 147.969 82.3673 149.974C88.488 152.693 101.831 161.516 101.831 161.516C101.831 161.516 96.1739 151.985 90.0619 143.853C83.9499 135.721 71.5074 125.29 71.5074 125.29L97.9839 145.401L87.3513 128.429L82.822 123.899C82.822 123.899 94.1366 130.02 97.7565 134.759C101.376 139.499 110.208 149.694 110.208 149.694C110.208 149.694 98.6659 113.949 93.4633 105.572C88.2607 97.1956 79.6567 88.6004 79.6567 88.6004C79.6567 88.6004 94.3639 93.5756 98.2112 95.8403C102.059 98.105 103.414 99.4603 103.868 100.142C104.323 100.824 102.513 90.6377 96.6286 78.1952C90.7439 65.7526 88.0246 59.186 88.0246 59.186C88.0246 59.186 98.4648 66.0324 103.414 75.0474C108.363 84.0623 114.956 98.3848 114.956 98.3848C114.956 98.3848 107.961 60.1391 104.551 52.9166C101.14 45.6942 94.3639 35.7261 94.3639 35.7261C94.3639 35.7261 111.108 48.6234 114.475 63.7853L117.867 78.9384C117.867 78.9384 114.728 61.7042 112.455 46.997C110.182 32.2898 109.744 25.7232 109.744 25.0411C109.744 24.3591 115.629 32.2811 119.022 39.7483C121.535 45.6388 123.357 51.8006 124.452 58.1105C124.906 60.5937 123.997 49.9612 125.58 42.4939C127.162 35.0266 128.526 30.7246 128.754 29.3781C128.981 28.0315 131.692 42.4939 132.374 53.8172C133.056 65.1406 132.819 81.8763 132.819 81.8763C132.819 81.8763 140.514 66.2598 142.097 62.4125C143.679 58.5652 146.853 54.543 147.081 53.5899C146.461 60.2006 145.409 66.7638 143.933 73.2374C141.896 81.614 140.995 85.234 140.995 85.234L141.222 91.1186C141.222 91.1186 155.213 64.887 160.459 56.7202C165.705 48.5534 174.449 41.5583 174.449 41.5583C174.449 41.5583 173.575 46.5423 167.454 63.7415C163.262 75.458 157.957 86.7455 151.61 97.4492C150.027 99.9412 147.763 104.444 147.089 105.826C146.416 107.207 147.535 116.686 147.535 116.686C147.535 116.686 159.777 109.446 169.264 104.916C178.751 100.387 196.186 97.2306 196.186 97.2306C196.186 97.2306 175.376 105.598 168.809 112.165C162.243 118.732 148.445 129.583 148.445 129.583L148.672 139.315C148.672 139.315 164.962 126.872 176.049 122.116C187.136 117.359 195.058 116.458 195.058 116.458L165.871 136.858C158.404 142.06 149.8 148.854 149.8 148.854C149.8 148.854 167.909 140.032 182.389 139.577C182.389 139.577 157.031 155.412 154.557 159.032C152.082 162.652 148.217 166.727 147.763 167.409C147.308 168.091 159.532 163.334 166.545 161.524C171.39 160.333 176.301 159.425 181.252 158.805C174.085 160.669 167.286 163.731 161.141 167.864C150.508 174.859 146.372 176.31 145.271 177.631L144.169 178.951C144.169 178.951 167.48 170.574 173.137 169.219C177.005 168.415 180.98 168.262 184.898 168.764C184.898 168.764 168.897 171.195 161.508 178.383C154.12 185.57 144.405 194.646 133.877 194.052C123.35 193.457 117.474 193.457 115.437 193.23C113.399 193.002 107.034 194.567 107.034 194.567Z" fill="#285E67" stroke="#2B2B2B" stroke-miterlimit="10"/>
<path opacity="0.2" d="M107.034 194.567C107.034 194.567 103.186 189.137 97.7565 188.447C93.8243 188.11 89.8641 188.336 85.996 189.12C85.996 189.12 88.4793 184.372 90.7439 182.999C92.5023 181.996 94.3151 181.091 96.1739 180.289C94.9422 177.801 93.0674 175.687 90.7439 174.168C86.8966 171.685 80.5573 167.837 80.5573 167.837C80.5573 167.837 88.7066 168.511 92.5539 169.647C95.3848 170.578 98.1149 171.791 100.703 173.267C100.703 173.267 94.8186 166.928 90.0619 162.407C85.3052 157.887 75.3547 149.501 75.3547 149.501L67.8612 144.727C72.7862 146.217 77.6284 147.969 82.3673 149.974C88.488 152.693 101.831 161.516 101.831 161.516C101.831 161.516 96.1739 151.985 90.0619 143.853C83.9499 135.721 71.5074 125.29 71.5074 125.29L97.9839 145.401L87.3513 128.429L82.822 123.899C82.822 123.899 94.1366 130.02 97.7565 134.759C101.376 139.499 110.208 149.694 110.208 149.694C110.208 149.694 98.6659 113.949 93.4633 105.572C88.2607 97.1956 79.6567 88.6004 79.6567 88.6004C79.6567 88.6004 94.3639 93.5756 98.2112 95.8403C102.059 98.105 103.414 99.4603 103.868 100.142C104.323 100.824 102.513 90.6377 96.6286 78.1952C90.7439 65.7526 88.0246 59.186 88.0246 59.186C88.0246 59.186 98.4648 66.0324 103.414 75.0474C108.363 84.0623 114.956 98.3848 114.956 98.3848C114.956 98.3848 107.961 60.1391 104.551 52.9166C101.14 45.6942 94.3639 35.7261 94.3639 35.7261C94.3639 35.7261 111.108 48.6234 114.475 63.7853L117.867 78.9384C117.867 78.9384 114.728 61.7042 112.455 46.997C110.182 32.2898 109.744 25.7232 109.744 25.0411C109.744 24.3591 115.629 32.2811 119.022 39.7483C121.535 45.6388 123.357 51.8006 124.452 58.1105C124.906 60.5937 123.997 49.9612 125.58 42.4939C127.162 35.0266 128.526 30.7246 128.754 29.3781C128.981 28.0315 131.692 42.4939 132.374 53.8172C133.056 65.1406 132.819 81.8763 132.819 81.8763C132.819 81.8763 140.514 66.2598 142.097 62.4125C143.679 58.5652 146.853 54.543 147.081 53.5899C146.461 60.2006 145.409 66.7638 143.933 73.2374C141.896 81.614 140.995 85.234 140.995 85.234L141.222 91.1186C141.222 91.1186 155.213 64.887 160.459 56.7202C165.705 48.5534 174.449 41.5583 174.449 41.5583C174.449 41.5583 173.575 46.5423 167.454 63.7415C163.262 75.458 157.957 86.7455 151.61 97.4492C150.027 99.9412 147.763 104.444 147.089 105.826C146.416 107.207 147.535 116.686 147.535 116.686C147.535 116.686 159.777 109.446 169.264 104.916C178.751 100.387 196.186 97.2306 196.186 97.2306C196.186 97.2306 175.376 105.598 168.809 112.165C162.243 118.732 148.445 129.583 148.445 129.583L148.672 139.315C148.672 139.315 164.962 126.872 176.049 122.116C187.136 117.359 195.058 116.458 195.058 116.458L165.871 136.858C158.404 142.06 149.8 148.854 149.8 148.854C149.8 148.854 167.909 140.032 182.389 139.577C182.389 139.577 157.031 155.412 154.557 159.032C152.082 162.652 148.217 166.727 147.763 167.409C147.308 168.091 159.532 163.334 166.545 161.524C171.39 160.333 176.301 159.425 181.252 158.805C174.085 160.669 167.286 163.731 161.141 167.864C150.508 174.859 146.372 176.31 145.271 177.631L144.169 178.951C144.169 178.951 167.48 170.574 173.137 169.219C177.005 168.415 180.98 168.262 184.898 168.764C184.898 168.764 168.897 171.195 161.508 178.383C154.12 185.57 144.405 194.646 133.877 194.052C123.35 193.457 117.474 193.457 115.437 193.23C113.399 193.002 107.034 194.567 107.034 194.567Z" fill="#2A2A2A" stroke="#2B2B2B" stroke-miterlimit="10"/>
<path d="M107.034 194.567C107.034 194.567 103.186 189.137 97.7565 188.447C93.8243 188.11 89.8641 188.336 85.996 189.12C85.996 189.12 88.4793 184.372 90.7439 182.999C92.5023 181.996 94.3151 181.091 96.1739 180.289C94.9422 177.801 93.0674 175.687 90.7439 174.168C86.8966 171.685 80.5573 167.837 80.5573 167.837C80.5573 167.837 88.7066 168.511 92.5539 169.647C95.3848 170.578 98.1149 171.791 100.703 173.267C100.703 173.267 94.8186 166.928 90.0619 162.407C85.3052 157.887 75.3547 149.501 75.3547 149.501L67.8612 144.727C72.7862 146.217 77.6284 147.969 82.3673 149.974C88.488 152.693 101.831 161.516 101.831 161.516C101.831 161.516 96.1739 151.985 90.0619 143.853C83.9499 135.721 71.5074 125.29 71.5074 125.29L97.9839 145.401L87.3513 128.429L82.822 123.899C82.822 123.899 94.1366 130.02 97.7565 134.759C101.376 139.499 110.208 149.694 110.208 149.694C110.208 149.694 98.6659 113.949 93.4633 105.572C88.2607 97.1956 79.6567 88.6004 79.6567 88.6004C79.6567 88.6004 94.3639 93.5756 98.2112 95.8403C102.059 98.105 103.414 99.4603 103.868 100.142C104.323 100.824 102.513 90.6377 96.6286 78.1952C90.7439 65.7526 88.0246 59.186 88.0246 59.186C88.0246 59.186 98.4648 66.0324 103.414 75.0474C108.363 84.0623 114.956 98.3848 114.956 98.3848C114.956 98.3848 107.961 60.1391 104.551 52.9166C101.14 45.6942 94.3639 35.7261 94.3639 35.7261C94.3639 35.7261 111.108 48.6234 114.475 63.7853L117.867 78.9384C117.867 78.9384 114.728 61.7042 112.455 46.997C110.182 32.2898 109.744 25.7232 109.744 25.0411C109.744 24.3591 115.629 32.2811 119.022 39.7483C121.535 45.6388 123.357 51.8006 124.452 58.1105C124.906 60.5937 123.997 49.9612 125.58 42.4939C127.162 35.0266 128.526 30.7246 128.754 29.3781C128.981 28.0315 131.692 42.4939 132.374 53.8172C133.056 65.1406 132.819 81.8763 132.819 81.8763C132.819 81.8763 140.514 66.2598 142.097 62.4125C143.679 58.5652 146.853 54.543 147.081 53.5899C146.461 60.2006 145.409 66.7638 143.933 73.2374C141.896 81.614 140.995 85.234 140.995 85.234L141.222 91.1186C141.222 91.1186 155.213 64.887 160.459 56.7202C165.705 48.5534 174.449 41.5583 174.449 41.5583C174.449 41.5583 173.575 46.5423 167.454 63.7415C163.262 75.458 157.957 86.7455 151.61 97.4492C150.027 99.9412 147.763 104.444 147.089 105.826C146.416 107.207 147.535 116.686 147.535 116.686C147.535 116.686 159.777 109.446 169.264 104.916C178.751 100.387 196.186 97.2306 196.186 97.2306C196.186 97.2306 175.376 105.598 168.809 112.165C162.243 118.732 148.445 129.583 148.445 129.583L148.672 139.315C148.672 139.315 164.962 126.872 176.049 122.116C187.136 117.359 195.058 116.458 195.058 116.458L165.871 136.858C158.404 142.06 149.8 148.854 149.8 148.854C149.8 148.854 167.909 140.032 182.389 139.577C182.389 139.577 157.031 155.412 154.557 159.032C152.082 162.652 148.217 166.727 147.763 167.409C147.308 168.091 159.532 163.334 166.545 161.524C171.39 160.333 176.301 159.425 181.252 158.805C174.085 160.669 167.286 163.731 161.141 167.864C150.508 174.859 146.372 176.31 145.271 177.631L144.169 178.951C144.169 178.951 167.48 170.574 173.137 169.219C177.005 168.415 180.98 168.262 184.898 168.764C184.898 168.764 168.897 171.195 161.508 178.383C154.12 185.57 144.405 194.646 133.877 194.052C123.35 193.457 117.474 193.457 115.437 193.23C113.399 193.002 107.034 194.567 107.034 194.567Z" stroke="#2B2B2B" stroke-linecap="round" stroke-linejoin="round"/>
<path d="M123.953 114.124C123.953 114.124 123.079 80.897 128.649 65.228C134.219 49.559 136.938 44.7935 136.938 44.7935C136.938 44.7935 147.579 74.3828 147.037 90.9875C146.495 107.592 138.197 130.685 138.197 130.685L123.953 114.124Z" fill="#285E67" stroke="#2B2B2B" stroke-linecap="round" stroke-linejoin="round"/>
<path d="M119.8 128.516C119.8 128.516 111.143 111.369 112.586 91.5296C114.029 71.6897 116.197 62.8322 115.288 56.7027C114.379 50.5733 113.67 44.7935 113.67 44.7935C113.67 44.7935 124.854 69.154 132.435 87.9184C137.17 99.8929 139.085 112.797 138.031 125.631C137.847 126.715 132.435 135.371 132.435 135.371L128.649 145.112L119.8 128.516Z" fill="#285E67" stroke="#2B2B2B" stroke-linecap="round" stroke-linejoin="round"/>
<path d="M118.899 153.419C118.899 153.419 106.089 137.898 95.9815 124.73C89.3792 116.253 82.1417 108.291 74.3317 100.912C74.3317 100.912 89.4936 106.158 98.15 114.439C106.806 122.719 121.243 136.639 124.854 146.196C128.465 155.753 125.037 161.717 125.037 161.717L118.899 153.419Z" fill="#285E67" stroke="#2B2B2B" stroke-linecap="round" stroke-linejoin="round"/>
<path d="M136.221 147.823C136.221 147.823 148.462 127.616 157.154 106.499C165.845 85.3826 172.849 76.1841 172.849 76.1841C172.849 76.1841 146.329 100.37 141.275 109.411C136.221 118.452 131.893 122.395 129.908 131.961C127.923 141.527 130.45 153.436 130.634 154.337C130.817 155.237 136.221 147.823 136.221 147.823Z" fill="#285E67" stroke="#2B2B2B" stroke-linecap="round" stroke-linejoin="round"/>
<path d="M128.649 134.829C128.649 134.829 125.037 117.691 115.472 105.056C105.906 92.4215 89.8521 85.3914 89.8521 85.3914C89.8521 85.3914 97.0658 85.9335 101.936 101.27C106.806 116.607 114.029 130.685 118.182 134.654C122.336 138.624 127.381 143.669 127.381 143.669L128.649 134.829Z" fill="#285E67" stroke="#2B2B2B" stroke-linecap="round" stroke-linejoin="round"/>
<path d="M118.899 153.419C115.361 150.668 112.037 147.651 108.957 144.395C106.086 141.307 103.013 138.412 99.7589 135.73C99.7589 135.73 105.53 134.855 109.141 135.73C112.752 136.604 118.165 140.242 118.165 140.242C116.393 137.579 115.224 134.562 114.737 131.402C114.195 126.715 114.195 124.73 114.195 124.73C118.097 126.435 121.839 128.483 125.378 130.851C130.249 134.278 134.586 143.092 134.586 143.092C134.586 143.092 133.318 140.207 140.173 132.267C147.028 124.328 158.579 119.816 158.579 119.816C158.579 119.816 154.968 131.725 152.082 136.237C150.366 138.927 148.5 141.519 146.495 144.002C146.495 144.002 152.808 138.948 157.495 137.68C162.181 136.412 163.274 136.237 163.274 136.237C163.274 136.237 158.903 143.634 157.154 146.161C154.309 149.847 151.237 153.351 147.955 156.654C145.061 159.592 135.862 165.713 135.862 165.713L127.923 169.866L118.899 153.419Z" fill="#285E67" stroke="#2B2B2B" stroke-linecap="round" stroke-linejoin="round"/>
<path d="M114.755 168.93C114.755 168.93 110.243 165.87 110.059 158.105C109.875 150.341 110.243 144.579 110.243 144.579C110.243 144.579 117.238 146.922 121.61 149.825C124.164 151.503 126.319 153.72 127.923 156.322C127.923 156.322 128.649 151.95 134.044 148.566C139.439 145.182 150.998 142.445 150.998 142.445C150.998 142.445 149.555 151.285 147.938 156.698C146.32 162.11 141.983 166.622 139.456 169.507C136.929 172.393 127.215 179.257 127.215 179.257L114.755 168.93Z" fill="#285E67" stroke="#2B2B2B" stroke-linecap="round" stroke-linejoin="round"/>
<path d="M111.318 179.939C111.318 179.939 107.532 173.626 105.547 169.656C103.562 165.686 103.204 164.786 103.204 164.786C106.424 165.127 109.618 165.67 112.77 166.412C115.355 167.273 117.884 168.295 120.342 169.473C120.342 169.473 120.709 165.686 125.037 161.717C127.572 159.38 130.355 157.328 133.335 155.596C133.335 155.596 138.206 161.192 138.582 164.445C138.958 167.698 139.299 170.566 139.299 170.566L145.979 166.596C146.474 170.277 146.227 174.02 145.253 177.604C143.627 183.017 142.009 185.36 141.467 185.902C140.799 186.412 140.07 186.837 139.299 187.17C139.299 187.17 138.757 189.155 132.444 187.887C126.13 186.619 120.534 184.818 119.992 184.46C119.45 184.101 118.007 183.2 117.282 182.833C116.556 182.466 111.318 179.939 111.318 179.939Z" fill="#285E67" stroke="#2B2B2B" stroke-linecap="round" stroke-linejoin="round"/>
<path d="M101.394 191.131C101.394 191.131 99.9513 188.421 93.2798 186.077C88.5815 184.539 83.7477 183.449 78.8436 182.824C78.8436 182.824 85.1567 179.939 91.2949 180.306C97.4331 180.673 106.273 185.177 107.532 186.619C108.791 188.062 107.716 183.192 100.135 176.511C92.554 169.831 81.187 162.075 77.943 160.466C76.2353 159.594 74.4843 158.809 72.6967 158.114C72.6967 158.114 84.7894 157.939 93.6295 162.985C99.1619 166.191 104.361 169.94 109.15 174.177C107.22 168.127 103.881 162.622 99.4092 158.114C95.2313 153.872 90.6348 150.064 85.6901 146.747C85.6901 146.747 97.2407 151.259 104.997 156.672C112.752 162.084 127.189 177.788 127.189 177.788C127.189 177.788 129.715 165.879 139.098 158.298C144.913 153.669 151.619 150.288 158.798 148.365C158.441 153.463 156.896 158.407 154.286 162.801C152.1 166.552 149.688 170.167 147.063 173.626C147.063 173.626 160.957 165.328 167.279 163.702C173.601 162.075 180.255 160.466 180.255 160.466C180.255 160.466 159.139 172.909 155.353 177.421C151.566 181.933 150.482 183.375 150.482 183.375C150.482 183.375 159.864 179.589 164.376 178.505C168.888 177.421 177.002 177.246 177.002 177.246C177.002 177.246 158.054 184.241 154.452 186.628C150.849 189.015 144.16 192.583 144.16 192.583C144.16 192.583 118.724 191.857 113.312 191.708C107.9 191.56 101.394 191.131 101.394 191.131Z" fill="#285E67" stroke="#2B2B2B" stroke-linecap="round" stroke-linejoin="round"/>
<path d="M113.487 196.902C113.181 196.665 112.889 196.411 112.612 196.141C110.62 194.192 109.023 191.876 107.908 189.321C105.565 184.075 98.5261 175.969 98.5261 175.969C101.753 176.124 104.955 176.608 108.083 177.412C111.133 178.349 114.047 179.684 116.748 181.382C117.617 179.065 118.9 176.926 120.534 175.069L123.061 172.367C123.061 172.367 129.733 179.038 131.543 181.565C132.607 183.037 133.401 184.686 133.886 186.436C133.886 186.436 134.761 183.192 143.627 181.924C152.493 180.656 161.491 178.321 161.491 178.321C161.491 178.321 152.292 189.863 149.249 192.39C146.533 194.403 143.635 196.16 140.593 197.637L113.487 196.902Z" fill="#285E67" stroke="#2B2B2B" stroke-linecap="round" stroke-linejoin="round"/>
<path d="M111.502 200.872C111.502 200.872 103.379 200.33 99.2605 196.718C95.1421 193.107 92.2654 190.947 92.2654 190.947C92.2654 190.947 97.8615 189.688 101.464 191.131C105.066 192.574 111.502 195.442 111.502 195.442C111.502 195.442 110.628 195.083 109.876 190.93C109.489 188.966 109.249 186.975 109.159 184.975C109.159 184.975 115.83 185.334 119.8 188.045C123.77 190.755 125.046 192.556 125.046 192.556C125.046 192.556 122.878 192.014 129.418 190.213C134.579 188.94 139.824 188.034 145.113 187.502C145.113 187.502 145.655 190.746 146.198 194.9C146.74 199.053 145.113 201.396 145.113 201.396L111.502 200.872Z" fill="#285E67" stroke="#2B2B2B" stroke-linecap="round" stroke-linejoin="round"/>
<path d="M101.857 200.155C92.7638 203.652 85.62 207.29 78.896 214.766C68.1585 226.701 64.4336 244.198 63.5855 259.858C62.2302 284.97 64.967 315.294 74.6465 338.728C79.5693 350.619 90.333 362.467 103.842 364.085C110.4 364.881 121.732 364.881 127.101 365.274C132.47 365.668 133.056 365.676 141.004 365.082C182.563 361.96 192.837 311.587 193.248 277.888C193.327 271.968 193.178 265.996 192.89 260.085C191.806 237.92 184.767 214.705 164.455 202.918C161.171 200.946 157.711 199.283 154.12 197.951L155.711 194.174C155.711 194.174 152.537 194.375 151.339 195.363C150.141 196.351 146.372 197.357 146.372 197.357L142.001 191.988L139.421 195.171L133.851 193.973L131.665 198.546L124.312 196.561L121.138 199.543L115.568 197.191C114.852 198.129 113.979 198.937 112.988 199.578C111.598 200.365 105.434 198.782 105.434 198.782L101.857 200.155Z" fill="#FCE2D7" stroke="#2B2B2B" stroke-linecap="round" stroke-linejoin="round"/>
<path d="M110.112 206.52C107.191 211.443 101.989 216.602 96.2263 218.062C90.4641 219.522 89.7646 210.945 95.1071 206.398C100.45 201.851 108.992 201.956 112.744 199.709C116.495 197.462 113.032 201.563 110.112 206.52Z" fill="#FCE2D7" stroke="#2B2B2B" stroke-linecap="round" stroke-linejoin="round"/>
<path d="M109.709 207.159C108.293 205.121 106.282 205.996 105.652 206.179C104.822 206.415 106.745 203.364 106.745 203.364C106.745 203.364 103.012 207.491 99.0682 206.188C97.1707 205.559 96.3313 205.55 95.8154 205.751L95.1072 206.398C89.7647 210.945 90.4555 219.514 96.2264 218.062C101.744 216.672 106.702 211.828 109.709 207.159Z" fill="#FCE2D7" stroke="#2B2B2B" stroke-linecap="round" stroke-linejoin="round"/>
<path d="M124.469 206.459C124.163 211.443 119.039 215.902 114.195 217.634C109.351 219.365 107.2 211.443 110.112 206.52C113.023 201.598 120.036 200.531 122.414 198.336C124.793 196.141 124.766 201.466 124.469 206.459Z" fill="#FCE2D7" stroke="#2B2B2B" stroke-linecap="round" stroke-linejoin="round"/>
<path d="M124.399 207.097C123.653 206.492 122.788 206.051 121.86 205.803C120.932 205.554 119.962 205.504 119.013 205.655C117.964 205.751 117.693 202.437 117.693 202.437C117.693 202.437 116.355 208.059 112.997 206.354C111.38 205.532 110.689 205.532 110.374 205.768C110.314 206.028 110.226 206.28 110.112 206.52C107.191 211.443 109.36 219.356 114.195 217.634C118.829 215.981 123.822 211.863 124.399 207.097Z" fill="#FCE2D7" stroke="#2B2B2B" stroke-linecap="round" stroke-linejoin="round"/>
<path d="M137.34 204.116C139.649 209.24 135.95 214.652 132.225 216.978C128.5 219.304 124.163 211.443 124.469 206.485C124.775 201.528 130.826 200.059 132.234 197.156C133.641 194.253 135.032 198.983 137.34 204.116Z" fill="#FCE2D7" stroke="#2B2B2B" stroke-linecap="round" stroke-linejoin="round"/>
<path d="M137.602 204.78C134.673 203.032 133.073 204.378 132.356 204.614C131.377 204.929 128.859 201.545 128.859 201.545C128.859 201.545 130.529 207.325 126.76 205.917C124.95 205.235 124.373 205.331 124.25 205.628C124.36 205.909 124.431 206.203 124.46 206.503C124.154 211.487 128.5 219.348 132.216 216.996C135.792 214.757 139.412 209.677 137.602 204.78Z" fill="#FCE2D7" stroke="#2B2B2B" stroke-linecap="round" stroke-linejoin="round"/>
<path d="M150.054 205.06C154.985 209.895 154.146 211.434 149.704 213.682C145.262 215.929 139.683 209.31 137.375 204.16C135.067 199.009 139.019 195.827 141.074 193.326C143.128 190.825 145.078 200.181 150.054 205.06Z" fill="#FCE2D7" stroke="#2B2B2B" stroke-linecap="round" stroke-linejoin="round"/>
<path d="M150.622 205.637C147.605 203.163 146.801 202.927 145.682 201.956C144.204 200.688 138.958 197.899 138.958 197.899C138.958 197.899 143.33 204.579 139.089 203.311C137.034 202.708 136.588 202.857 136.649 203.198C136.91 203.48 137.141 203.787 137.34 204.116C139.649 209.24 145.21 215.894 149.669 213.638C153.919 211.487 154.933 210.158 150.622 205.637Z" fill="#FCE2D7" stroke="#2B2B2B" stroke-linecap="round" stroke-linejoin="round"/>
<path d="M164.254 203.136C171.511 207.508 171.87 213.559 166.072 215.308C160.275 217.057 154.95 209.852 150.054 205.06C145.157 200.268 145.428 198.327 149.372 196.762C153.315 195.197 156.996 198.738 164.254 203.136Z" fill="#FCE2D7" stroke="#2B2B2B" stroke-linecap="round" stroke-linejoin="round"/>
<path d="M165.163 203.705C161.736 202.708 159.917 204.378 158.492 204.457C156.655 204.57 148.279 200.907 148.279 200.907C148.279 200.907 154.041 207.832 150.377 205.2C148.628 203.932 148.506 203.827 148.847 204.09C149.188 204.352 149.783 204.789 150.019 205.016C154.95 209.852 160.275 217.057 166.072 215.308C171.616 213.638 171.642 207.981 165.163 203.705Z" fill="#FCE2D7" stroke="#2B2B2B" stroke-linecap="round" stroke-linejoin="round"/>
<path d="M95.6317 219.295C92.8424 225.608 87.0977 232.595 79.578 231.099C73.842 229.954 71.9621 223.842 76.745 217.573C80.7846 212.274 88.7066 206.966 94.1278 207.246C97.6953 207.438 98.5959 212.58 95.6317 219.295Z" fill="#FCE2D7" stroke="#2B2B2B" stroke-linecap="round" stroke-linejoin="round"/>
<path d="M95.1945 220.187C92.8774 219.076 89.511 219.216 88.2956 218.386C86.6867 217.301 89.0476 211.915 89.0476 211.915C89.0476 211.915 86.0135 216.226 81.1781 216.174C78.8435 216.174 77.9166 216.401 77.4532 216.716C77.2171 217.004 76.981 217.284 76.7624 217.59C71.9883 223.903 73.7021 229.735 79.5955 231.117C85.2003 232.411 91.9068 226.754 95.1945 220.187Z" fill="#FCE2D7" stroke="#2B2B2B" stroke-linecap="round" stroke-linejoin="round"/>
<path d="M113.959 218.893C112.665 225.827 107.217 233.478 101.289 232.385C95.3608 231.292 92.4666 226.089 95.6319 219.269C98.7971 212.449 105.399 206.153 109.622 207.421C113.845 208.689 115.244 211.959 113.959 218.893Z" fill="#FCE2D7" stroke="#2B2B2B" stroke-linecap="round" stroke-linejoin="round"/>
<path d="M113.758 219.802C111.432 218.823 108.389 219.942 107.226 219.103C105.687 217.992 106.483 212.387 106.483 212.387C106.483 212.387 103.23 216.147 99.6628 216.847C98.3768 217.064 97.1604 217.583 96.1127 218.36C95.9466 218.666 95.7805 218.98 95.6318 219.295C92.4665 226.089 95.3695 231.292 101.289 232.411C106.964 233.425 112.245 226.518 113.758 219.802Z" fill="#FCE2D7" stroke="#2B2B2B" stroke-linecap="round" stroke-linejoin="round"/>
<path d="M132.33 218.246C132.889 225.241 129.217 233.023 123.114 232.323C117.011 231.624 112.665 225.827 113.959 218.893C115.253 211.959 120.08 206.512 124.408 207.395C128.736 208.278 131.779 211.286 132.33 218.246Z" fill="#FCE2D7" stroke="#2B2B2B" stroke-linecap="round" stroke-linejoin="round"/>
<path d="M132.382 219.164C130.17 218.499 127.46 219.601 126.157 218.849C124.408 217.861 123.464 212.405 123.464 212.405C122.045 214.524 119.844 215.992 117.343 216.488C115.358 216.873 114.51 217.441 114.134 217.931C114.055 218.246 113.976 218.569 113.924 218.893C112.63 225.827 116.967 231.633 123.079 232.324C128.946 233.041 132.636 225.949 132.382 219.164Z" fill="#FCE2D7" stroke="#2B2B2B" stroke-linecap="round" stroke-linejoin="round"/>
<path d="M150.141 214.906C152.668 221.901 149.774 230.645 143.408 230.251C137.043 229.858 132.916 225.215 132.33 218.246C131.744 211.277 133.3 204.396 137.751 205.069C142.202 205.742 147.614 207.928 150.141 214.906Z" fill="#FCE2D7" stroke="#2B2B2B" stroke-linecap="round" stroke-linejoin="round"/>
<path d="M150.43 215.833C147.334 215.133 145.183 217.188 143.671 216.515C141.66 215.64 138.914 210.201 138.914 210.201C138.914 210.201 138.136 214.075 134.691 215.448C133.038 216.104 132.479 216.768 132.277 217.293C132.277 217.616 132.277 217.94 132.33 218.263C132.89 225.258 137.052 229.858 143.408 230.269C149.494 230.645 152.441 222.627 150.43 215.833Z" fill="#FCE2D7" stroke="#2B2B2B" stroke-linecap="round" stroke-linejoin="round"/>
<path d="M166.886 216.471C171.258 222.836 168.783 231.064 163.589 229.805C158.395 228.546 152.668 221.892 150.141 214.941C147.614 207.989 147.588 203.81 150.911 205.961C154.233 208.112 162.54 210.097 166.886 216.471Z" fill="#FCE2D7" stroke="#2B2B2B" stroke-linecap="round" stroke-linejoin="round"/>
<path d="M167.393 217.301C163.135 216.523 161.736 218.237 160.345 217.301C158.509 216.069 154.408 210.604 154.408 210.604C154.408 210.604 156.76 215.693 152.581 213.358C150.57 212.239 149.958 213.419 149.818 213.944C149.923 214.259 150.019 214.582 150.141 214.906C152.668 221.901 158.387 228.537 163.589 229.77C168.556 231.012 170.987 223.501 167.393 217.301Z" fill="#FCE2D7" stroke="#2B2B2B" stroke-linecap="round" stroke-linejoin="round"/>
<path d="M101.63 234.422C100.598 241.505 94.635 249.086 88.6979 249.601C82.2974 250.17 77.8555 239.747 79.6742 233.102C81.423 226.614 89.6597 221.901 95.5531 220.755C101.001 219.697 102.837 226.317 101.63 234.422Z" fill="#FCE2D7" stroke="#2B2B2B" stroke-linecap="round" stroke-linejoin="round"/>
<path d="M101.429 235.471C98.5436 232.717 95.5182 233.854 94.2766 233.539C92.6328 233.137 92.5278 227.418 92.5278 227.418C92.5278 227.418 90.1757 234.413 84.466 232.533C81.7204 231.659 80.5837 231.659 80.094 232.017C79.9629 232.367 79.8317 232.726 79.7268 233.093C77.7857 239.8 81.8078 249.706 88.7505 249.593C94.4777 249.479 99.8727 243.14 101.429 235.471Z" fill="#FCE2D7" stroke="#2B2B2B" stroke-linecap="round" stroke-linejoin="round"/>
<path d="M123.761 234.326C123.826 237.879 122.661 241.346 120.464 244.139C118.267 246.932 115.172 248.88 111.703 249.654C103.746 251.56 100.686 240.412 101.63 234.387C102.915 226.212 109.141 222.014 114.212 220.327C119.284 218.639 123.77 226.203 123.761 234.326Z" fill="#FCE2D7" stroke="#2B2B2B" stroke-linecap="round" stroke-linejoin="round"/>
<path d="M123.708 235.375C120.456 232.822 116.923 233.626 115.498 233.355C113.627 232.997 112.691 227.173 112.691 227.173C112.691 227.173 111.161 235.401 105.871 233.626C103.326 232.752 102.295 232.918 101.858 233.303C101.77 233.67 101.691 234.037 101.63 234.422C100.686 240.447 103.466 251.403 111.703 249.689C115.005 248.965 117.973 247.168 120.145 244.578C122.317 241.989 123.57 238.752 123.708 235.375Z" fill="#FCE2D7" stroke="#2B2B2B" stroke-linecap="round" stroke-linejoin="round"/>
<path d="M144.379 232.236C145.498 240.49 139.718 247.293 134.577 249.129C129.436 250.965 123.682 242.51 123.761 234.326C123.84 226.142 128.955 221.945 132.898 219.662C136.842 217.38 143.26 223.982 144.379 232.236Z" fill="#FCE2D7" stroke="#2B2B2B" stroke-linecap="round" stroke-linejoin="round"/>
<path d="M144.484 233.294C140.768 230.889 137.419 232.551 136.177 232.42C134.533 232.254 132.924 226.561 132.924 226.561C132.924 226.561 132.828 234.763 127.678 233.294C125.212 232.586 124.181 232.796 123.796 233.207C123.796 233.574 123.743 233.941 123.743 234.326C123.665 242.51 129.418 250.939 134.56 249.129C139.491 247.372 145.07 241.085 144.484 233.294Z" fill="#FCE2D7" stroke="#2B2B2B" stroke-linecap="round" stroke-linejoin="round"/>
<path d="M164.717 231.79C167.122 239.528 163.406 243.874 157.556 245.833C149.879 248.412 145.21 238.339 144.379 232.236C143.26 223.982 147.649 216.873 151.234 216.331C156.034 215.605 162.916 225.958 164.717 231.79Z" fill="#FCE2D7" stroke="#2B2B2B" stroke-linecap="round" stroke-linejoin="round"/>
<path d="M164.98 232.796C161.569 230.068 159.147 230.89 157.652 229.893C155.685 228.59 152.721 223.239 152.721 223.239C152.721 223.239 154.015 232.052 148.349 230.951C145.621 230.417 144.598 230.671 144.274 231.108C144.274 231.475 144.335 231.851 144.388 232.236C145.262 238.357 149.888 248.412 157.565 245.833C163.17 243.953 166.755 240.184 164.98 232.796Z" fill="#FCE2D7" stroke="#2B2B2B" stroke-linecap="round" stroke-linejoin="round"/>
<path d="M185.414 227.593C188.352 233.495 185.143 242.851 178.9 245.081C171.03 247.835 166.492 237.902 164.717 231.816C162.435 223.947 162.758 219.575 168.538 217.826C175.638 215.631 182.511 221.752 185.414 227.593Z" fill="#FCE2D7" stroke="#2B2B2B" stroke-linecap="round" stroke-linejoin="round"/>
<path d="M185.799 228.555C182.747 227.138 179.25 229.429 177.649 229.429C175.525 229.386 171.284 224.104 171.284 224.104C171.284 224.104 171.468 231.099 167.594 230.994C165.732 230.933 164.612 230.356 164.429 230.715C164.525 231.064 164.612 231.423 164.717 231.79C166.466 237.911 170.768 247.66 178.9 245.055C185.187 243.026 188.457 235.611 185.799 228.555Z" fill="#FCE2D7" stroke="#2B2B2B" stroke-linecap="round" stroke-linejoin="round"/>
<path d="M88.2695 253.632C87.3951 260.199 82.6122 269.196 75.0575 266.696C68.9368 264.676 64.3113 256.85 65.3168 249.969C66.4798 242.099 72.4344 235.498 78.6688 236.853C85.5152 238.374 89.074 247.512 88.2695 253.632Z" fill="#FCE2D7" stroke="#2B2B2B" stroke-linecap="round" stroke-linejoin="round"/>
<path d="M88.1295 254.734C84.7019 252.898 81.1344 253.422 79.4818 252.382C77.2521 251.009 76.4652 244.005 76.4652 244.005C76.4652 244.005 75.5296 250.039 69.8636 248.806C67.1355 248.211 65.9113 248.491 65.4916 248.876C65.4217 249.243 65.3517 249.601 65.2993 249.969C64.2937 256.85 68.8668 264.571 75.04 266.696C80.8546 268.689 86.9579 262.813 88.1295 254.734Z" fill="#FCE2D7" stroke="#2B2B2B" stroke-linecap="round" stroke-linejoin="round"/>
<path d="M111.581 253.807C111.379 260.802 107.112 270.674 98.9632 269.415C92.0643 268.34 87.4737 260.514 88.2782 253.632C88.9864 247.582 93.1398 236.958 101.079 238.331C107.209 239.397 111.817 245.09 111.581 253.807Z" fill="#FCE2D7" stroke="#2B2B2B" stroke-linecap="round" stroke-linejoin="round"/>
<path d="M111.493 254.9C108.083 253.248 104.498 254.97 102.872 254.026C100.721 252.81 99.5229 245.737 99.5229 245.737C99.5229 245.737 97.4856 251.665 92.5978 251.341C90.2457 251.175 88.8991 251.857 88.4357 252.391C88.3745 252.784 88.3133 253.178 88.2695 253.571C87.5788 260.514 92.0469 268.27 98.9546 269.354C106.693 270.639 110.986 261.668 111.493 254.9Z" fill="#FCE2D7" stroke="#2B2B2B" stroke-linecap="round" stroke-linejoin="round"/>
<path d="M134.708 253.274C134.944 260.173 132.085 270.333 123.787 269.546C116.556 268.864 111.213 261.161 111.546 253.807C111.878 246.812 115.454 237.579 123.7 238.234C129.838 238.724 134.42 244.495 134.708 253.274Z" fill="#FCE2D7" stroke="#2B2B2B" stroke-linecap="round" stroke-linejoin="round"/>
<path d="M134.708 254.419C131.866 253.003 128.491 254.717 126.909 253.877C124.828 252.758 123 245.763 123 245.763C123 245.763 121.986 252.968 115.926 251.525C113.015 250.834 112.061 252.032 111.651 252.592C111.651 252.994 111.589 253.405 111.572 253.807C111.266 261.108 116.442 268.733 123.813 269.546C129.943 270.237 134.603 262.813 134.708 254.419Z" fill="#FCE2D7" stroke="#2B2B2B" stroke-linecap="round" stroke-linejoin="round"/>
<path d="M158.028 250.012C158.728 256.946 155.877 268.121 147.116 267.955C139.036 267.797 134.778 260.689 134.708 253.274C134.656 247.048 136.195 235.611 144.886 236.18C151.357 236.599 157.136 241.164 158.028 250.012Z" fill="#FCE2D7" stroke="#2B2B2B" stroke-linecap="round" stroke-linejoin="round"/>
<path d="M158.098 251.167C154.671 249.916 151.523 252.504 149.748 251.779C147.413 250.817 144.947 243.813 144.947 243.813C144.947 243.813 142.997 249.715 138.145 250.45C135.81 250.799 135.014 251.446 134.708 252.05V253.274C134.787 260.671 139.019 267.771 147.116 267.955C155.449 268.138 158.422 257.864 158.098 251.167Z" fill="#FCE2D7" stroke="#2B2B2B" stroke-linecap="round" stroke-linejoin="round"/>
<path d="M179.617 248.946C180.587 255.066 177.081 266.39 170.208 266.189C163.336 265.987 158.728 256.728 158.028 250.012C157.093 241.164 160.354 234.483 165.758 235.559C171.161 236.634 178.323 240.726 179.617 248.946Z" fill="#FCE2D7" stroke="#2B2B2B" stroke-linecap="round" stroke-linejoin="round"/>
<path d="M179.783 250.03C175.927 248.981 173.076 251.56 171.555 250.756C169.535 249.68 166.833 242.807 166.833 242.807C166.833 242.807 167.096 249.907 161.806 248.211C159.252 247.389 158.308 248.15 157.976 248.771C157.976 249.182 157.976 249.601 158.063 250.012C158.763 256.728 163.038 265.559 170.243 266.189C175.621 266.661 180.552 257.978 179.783 250.03Z" fill="#FCE2D7" stroke="#2B2B2B" stroke-linecap="round" stroke-linejoin="round"/>
<path d="M99.2605 271.514C99.1643 278.596 93.8481 286.894 87.3776 286.64C80.4787 286.369 75.2061 276.095 75.3548 268.742C75.5209 260.549 81.6853 256.457 88.4706 255.626C96.2876 254.62 99.3392 265.611 99.2605 271.514Z" fill="#FCE2D7" stroke="#2B2B2B" stroke-linecap="round" stroke-linejoin="round"/>
<path d="M99.1905 272.633C95.693 269.835 92.3878 270.945 90.8664 270.377C88.864 269.625 87.1939 263.251 87.1939 263.251C87.1939 263.251 86.1272 270.613 79.9628 268.375C76.9986 267.29 75.8619 267.273 75.4422 267.623C75.4422 267.99 75.3635 268.366 75.3547 268.742C75.2061 276.095 80.0939 285.985 87.3776 286.64C93.2185 287.165 98.5697 280.782 99.1905 272.633Z" fill="#FCE2D7" stroke="#2B2B2B" stroke-linecap="round" stroke-linejoin="round"/>
<path d="M124.154 271.662C124.207 279.409 119.468 286.745 111.616 287.681C103.3 288.678 99.1469 278.474 99.2606 271.514C99.3917 263.644 105.294 257.104 111.878 255.775C119.074 254.358 124.111 264.956 124.154 271.662Z" fill="#FCE2D7" stroke="#2B2B2B" stroke-linecap="round" stroke-linejoin="round"/>
<path d="M124.111 272.808C120.613 270.185 116.687 271.19 114.999 270.744C112.779 270.158 110.995 263.679 110.995 263.679C110.995 263.679 109.849 272.126 103.781 270.482C100.861 269.695 99.7589 269.887 99.3392 270.324C99.3392 270.709 99.2692 271.111 99.2605 271.514C99.0944 278.509 103.16 288.372 111.616 287.681C118.48 287.121 124.355 279.488 124.111 272.808Z" fill="#FCE2D7" stroke="#2B2B2B" stroke-linecap="round" stroke-linejoin="round"/>
<path d="M147.562 270.097C147.798 277.967 141.773 286.028 135.443 287.681C128.815 289.43 124.425 277.573 124.154 271.662C123.857 265.166 129.322 257.13 135.058 255.259C141.957 253.012 147.378 264.212 147.562 270.097Z" fill="#FCE2D7" stroke="#2B2B2B" stroke-linecap="round" stroke-linejoin="round"/>
<path d="M147.544 271.269C143.697 268.794 139.482 270.543 138.066 270.211C136.186 269.782 134.664 263.294 134.664 263.294C134.664 263.294 133.79 271.837 128.386 270.403C125.763 269.712 124.609 269.983 124.198 270.403C124.198 270.805 124.154 271.207 124.154 271.618C124.154 277.739 128.771 289.351 135.443 287.637C141.423 286.151 147.544 278.815 147.544 271.269Z" fill="#FCE2D7" stroke="#2B2B2B" stroke-linecap="round" stroke-linejoin="round"/>
<path d="M170.645 268.287C171.048 275.282 167.436 283.344 160.048 284.831C151.986 286.448 147.728 276.576 147.562 270.097C147.369 262.656 153.035 253.012 158.561 251.989C164.28 250.931 170.261 261.607 170.645 268.287Z" fill="#FCE2D7" stroke="#2B2B2B" stroke-linecap="round" stroke-linejoin="round"/>
<path d="M170.663 269.433C167.393 266.984 164.219 268.462 162.654 267.623C160.581 266.512 158.518 260.147 158.518 260.147C158.518 260.147 158.369 269.345 152.178 268.444C149.197 268.016 147.999 268.348 147.579 268.847C147.579 269.266 147.579 269.677 147.579 270.097C147.719 276.602 151.951 287.025 160.065 284.83C166.02 283.213 170.672 277.765 170.663 269.433Z" fill="#FCE2D7" stroke="#2B2B2B" stroke-linecap="round" stroke-linejoin="round"/>
<path d="M192.741 262.053C193.143 269.975 189.244 278.614 182.249 281.753C176.416 284.376 171.17 277.066 170.637 268.287C170.226 261.528 173.26 253.116 180.255 250.799C186.822 248.613 192.322 253.589 192.741 262.053Z" fill="#FCE2D7" stroke="#2B2B2B" stroke-linecap="round" stroke-linejoin="round"/>
<path d="M192.759 263.163C190.223 261.843 186.297 264.597 184.758 264.536C182.721 264.448 180.482 258.476 180.482 258.476C180.482 258.476 179.031 266.285 174.362 266.573C172.097 266.713 170.987 266.573 170.646 267.072C170.646 267.474 170.646 267.876 170.646 268.287C171.091 277.162 176.408 284.367 182.257 281.753C188.885 278.78 192.899 270.753 192.759 263.163Z" fill="#FCE2D7" stroke="#2B2B2B" stroke-linecap="round" stroke-linejoin="round"/>
<path d="M87.0278 289.596C87.2027 298.191 81.5192 304.933 75.8706 302.441C69.3477 299.555 64.7047 290.916 64.3287 283.484C63.9178 275.247 68.5433 269.494 74.9263 271.479C82.6646 273.892 86.8617 281.788 87.0278 289.596Z" fill="#FCE2D7" stroke="#2B2B2B" stroke-linecap="round" stroke-linejoin="round"/>
<path d="M86.9929 290.75C83.3642 288.38 79.9978 288.826 78.2491 287.663C75.9844 286.125 74.1394 278.806 74.1394 278.806C74.1394 278.806 73.9646 285.206 68.3772 283.02C65.6841 281.971 64.6086 282.05 64.2938 282.4C64.2938 282.767 64.2938 283.134 64.2938 283.519C64.6698 290.951 69.3128 299.59 75.8357 302.476C81.2744 304.828 86.6607 298.882 86.9929 290.75Z" fill="#FCE2D7" stroke="#2B2B2B" stroke-linecap="round" stroke-linejoin="round"/>
<path d="M111.257 290.75C111.257 297.745 106.885 307.643 99.0768 306.638C91.8894 305.702 87.0977 296.792 87.0278 289.631C86.9578 283.23 90.9538 273.061 98.832 274.478C106.273 275.789 111.248 283.134 111.257 290.75Z" fill="#FCE2D7" stroke="#2B2B2B" stroke-linecap="round" stroke-linejoin="round"/>
<path d="M111.222 291.843C107.497 289.911 103.799 291.546 102.076 290.663C99.8027 289.491 98.0102 282.242 98.0102 282.242C98.0102 282.242 96.6549 288.879 91.3037 287.935C88.733 287.471 87.4739 287.935 87.0629 288.407C87.0629 288.8 87.0192 289.194 87.0629 289.596C87.1678 296.792 91.8196 305.545 99.112 306.603C106.002 307.6 111.371 298.051 111.222 291.843Z" fill="#FCE2D7" stroke="#2B2B2B" stroke-linecap="round" stroke-linejoin="round"/>
<path d="M135.189 290.75C135.128 297.57 131.866 307.495 124.067 307.014C116.792 306.559 111.301 298.182 111.292 290.741C111.283 283.3 115.83 273.883 123.831 274.696C131.027 275.405 135.189 283.528 135.189 290.75Z" fill="#FCE2D7" stroke="#2B2B2B" stroke-linecap="round" stroke-linejoin="round"/>
<path d="M135.119 291.861C132.207 290.112 128.64 291.721 127.075 290.908C125.011 289.832 123.088 282.627 123.088 282.627C123.088 282.627 122.213 290.068 115.839 288.748C112.787 288.101 111.712 289.001 111.292 289.535C111.292 289.928 111.292 290.33 111.292 290.741C111.336 298.165 116.538 306.271 124.067 307.014C130.013 307.573 134.778 300.15 135.119 291.861Z" fill="#FCE2D7" stroke="#2B2B2B" stroke-linecap="round" stroke-linejoin="round"/>
<path d="M159.751 287.891C159.698 295.175 155.973 305.562 147.465 305.921C138.958 306.279 135.075 298.13 135.189 290.75C135.259 283.51 138.162 272.694 147.273 273.262C154.994 273.665 159.794 280.258 159.751 287.891Z" fill="#FCE2D7" stroke="#2B2B2B" stroke-linecap="round" stroke-linejoin="round"/>
<path d="M159.716 289.001C156.323 287.672 152.817 290.086 151.042 289.43C148.698 288.555 146.609 281.377 146.609 281.377C146.609 281.377 144.055 288.074 138.853 288.311C136.352 288.415 135.521 288.958 135.189 289.508C135.189 289.902 135.189 290.313 135.189 290.706C135.11 298.112 139.063 306.227 147.5 305.903C155.588 305.615 159.366 295.996 159.716 289.001Z" fill="#FCE2D7" stroke="#2B2B2B" stroke-linecap="round" stroke-linejoin="round"/>
<path d="M181.925 284.629C181.82 291.388 177.754 301.496 170.716 302.825C165.224 303.857 159.891 296.504 159.751 287.9C159.637 281.254 162.662 271.444 170.462 271.286C176.224 271.225 182.048 276.76 181.925 284.629Z" fill="#FCE2D7" stroke="#2B2B2B" stroke-linecap="round" stroke-linejoin="round"/>
<path d="M181.881 285.661C178.515 284.787 175.35 287.462 173.872 286.912C171.922 286.195 170.103 279.296 170.103 279.296C170.103 279.296 169.351 286.833 163.869 285.88C161.246 285.425 160.153 286.107 159.777 286.693C159.777 287.095 159.777 287.497 159.777 287.891C159.873 296.539 165.189 303.813 170.742 302.817C177.492 301.601 181.339 292.149 181.881 285.661Z" fill="#FCE2D7" stroke="#2B2B2B" stroke-linecap="round" stroke-linejoin="round"/>
<path d="M99.5229 309.235C99.8202 318.197 94.7837 325.253 89.1876 324.021C81.9127 322.412 77.1648 312.531 76.4215 305.064C75.5471 296.495 80.7935 291.948 87.4301 292.114C95.387 292.333 99.2868 302.397 99.5229 309.235Z" fill="#FCE2D7" stroke="#2B2B2B" stroke-linecap="round" stroke-linejoin="round"/>
<path d="M99.5228 310.38C96.0252 307.626 92.7288 308.771 91.1549 307.993C89.0651 306.961 86.9053 299.922 86.9053 299.922C86.9053 299.922 86.3457 307.521 80.5223 304.88C77.7155 303.612 76.7012 303.542 76.3602 303.883C76.3602 304.268 76.3602 304.662 76.4214 305.064C77.1647 312.531 81.9126 322.412 89.1875 324.021C94.5475 325.201 99.4091 318.783 99.5228 310.38Z" fill="#FCE2D7" stroke="#2B2B2B" stroke-linecap="round" stroke-linejoin="round"/>
<path d="M124.408 309.619C124.478 316.964 120.22 325.358 112.385 325.717C104.271 326.119 99.8638 316.335 99.5228 309.235C99.1468 301.453 104.358 294.003 111.668 293.207C119.503 292.35 124.338 302.441 124.408 309.619Z" fill="#FCE2D7" stroke="#2B2B2B" stroke-linecap="round" stroke-linejoin="round"/>
<path d="M124.373 310.782C120.963 308.159 117.116 309.471 115.376 308.894C113.085 308.124 111.004 301.208 111.004 301.208C111.004 301.208 109.981 309.515 103.886 308.019C100.948 307.302 99.8901 307.538 99.5142 308.019C99.5142 308.422 99.5142 308.832 99.5142 309.252C99.759 316.457 104.026 325.927 112.376 325.734C119.354 325.551 124.697 317.244 124.373 310.782Z" fill="#FCE2D7" stroke="#2B2B2B" stroke-linecap="round" stroke-linejoin="round"/>
<path d="M147.807 308.553C147.605 316.09 141.284 325.052 134.971 325.988C128.657 326.923 124.478 315.801 124.408 309.619C124.285 301.846 128.867 294.755 135.46 293.19C142.053 291.624 147.973 302.117 147.807 308.553Z" fill="#FCE2D7" stroke="#2B2B2B" stroke-linecap="round" stroke-linejoin="round"/>
<path d="M147.728 309.733C144.029 307.381 139.535 309.226 138.11 308.754C136.23 308.133 134.848 301.251 134.848 301.251C134.848 301.251 133.519 309.558 128.43 308.247C125.991 307.608 124.828 307.914 124.443 308.395C124.443 308.797 124.399 309.217 124.443 309.637C124.495 315.845 128.561 326.924 135.005 326.005C140.943 325.14 147.378 316.982 147.728 309.733Z" fill="#FCE2D7" stroke="#2B2B2B" stroke-linecap="round" stroke-linejoin="round"/>
<path d="M170.925 305.317C170.436 312.645 166.475 321.424 158.876 323.269C151.007 325.192 147.649 314.595 147.807 308.553C147.99 300.806 153.586 291.642 160.118 290.304C166.65 288.966 171.354 298.829 170.925 305.317Z" fill="#FCE2D7" stroke="#2B2B2B" stroke-linecap="round" stroke-linejoin="round"/>
<path d="M170.82 306.489C167.847 304.583 164.499 306.542 162.951 305.912C160.949 305.09 159.366 298.462 159.366 298.462C159.366 298.462 158.491 307.329 152.449 306.716C149.52 306.428 148.296 306.795 147.85 307.32C147.85 307.731 147.789 308.15 147.78 308.579C147.605 314.647 150.919 325.192 158.85 323.295C166.099 321.529 170.077 313.484 170.82 306.489Z" fill="#FCE2D7" stroke="#2B2B2B" stroke-linecap="round" stroke-linejoin="round"/>
<path d="M191.753 297.168C190.739 305.116 186.358 313.851 179.643 317.638C174.545 320.514 170.523 314.14 170.899 305.317C171.231 297.999 175.07 289.657 182.266 286.798C188.527 284.306 192.811 288.826 191.753 297.168Z" fill="#FCE2D7" stroke="#2B2B2B" stroke-linecap="round" stroke-linejoin="round"/>
<path d="M191.587 298.27C189.419 297.396 185.764 300.377 184.417 300.395C182.668 300.395 181.374 294.431 181.374 294.431C181.374 294.431 179.477 302.301 174.773 303.018C172.508 303.359 171.406 303.56 171.022 304.102C171.022 304.504 170.943 304.907 170.925 305.317C170.462 314.158 174.528 320.514 179.669 317.638C186.061 314.035 190.276 305.833 191.587 298.27Z" fill="#FCE2D7" stroke="#2B2B2B" stroke-linecap="round" stroke-linejoin="round"/>
<path d="M89.3362 328.725C90.3505 337.206 86.372 342.61 81.764 339.698C75.6433 335.825 71.0965 327.457 69.304 320.226C67.3541 312.356 70.7293 307.232 76.5527 309.733C83.95 312.811 88.4006 320.882 89.3362 328.725Z" fill="#FCE2D7" stroke="#2B2B2B" stroke-linecap="round" stroke-linejoin="round"/>
<path d="M89.4237 329.818C85.9262 326.993 83.0757 327.334 81.5018 326.075C79.4295 324.423 76.8588 317.06 76.8588 317.06C76.8588 317.06 77.3572 323.566 72.4868 320.488C70.126 319.01 69.3041 318.879 69.1117 319.15C69.1816 319.509 69.2429 319.867 69.339 320.226C71.0878 327.483 75.6696 335.825 81.7991 339.698C86.171 342.488 89.9396 337.766 89.4237 329.818Z" fill="#FCE2D7" stroke="#2B2B2B" stroke-linecap="round" stroke-linejoin="round"/>
<path d="M112.166 330.613C112.429 339.357 106.78 346.422 101.56 345.574C94.565 344.438 90.1406 335.519 89.3187 328.725C88.3219 320.217 93.2622 313.248 99.3479 314.149C106.894 315.233 111.948 323.041 112.166 330.613Z" fill="#FCE2D7" stroke="#2B2B2B" stroke-linecap="round" stroke-linejoin="round"/>
<path d="M112.166 331.75C108.503 329.547 105.005 331.129 103.353 330.29C101.175 329.197 99.0856 322.053 99.0856 322.053C99.0856 322.053 98.4036 329.171 93.1485 327.641C90.6216 326.906 89.5723 327.125 89.2488 327.544C89.2488 327.938 89.2488 328.331 89.3362 328.725C90.1406 335.519 94.5301 344.464 101.578 345.574C106.553 346.387 112 340.004 112.166 331.75Z" fill="#FCE2D7" stroke="#2B2B2B" stroke-linecap="round" stroke-linejoin="round"/>
<path d="M134.481 330.972C133.956 339.777 129.235 346.921 123.988 346.405C116.862 345.705 112.411 337.469 112.193 330.605C111.965 323.373 116.565 313.991 124.111 314.577C131.254 315.163 134.901 323.977 134.481 330.972Z" fill="#FCE2D7" stroke="#2B2B2B" stroke-linecap="round" stroke-linejoin="round"/>
<path d="M134.402 332.135C131.823 330.036 128.351 331.584 126.987 330.788C125.177 329.739 123.429 322.613 123.429 322.613C123.429 322.613 122.624 330.071 116.591 328.856C113.679 328.27 112.569 328.856 112.219 329.398C112.219 329.8 112.219 330.203 112.219 330.613C112.437 337.486 116.888 345.714 124.014 346.414C129.068 346.912 133.676 340.59 134.402 332.135Z" fill="#FCE2D7" stroke="#2B2B2B" stroke-linecap="round" stroke-linejoin="round"/>
<path d="M158.054 328.349C156.865 335.152 152.729 345.321 144.825 346.046C138.704 346.606 134.14 339.847 134.481 330.946C134.778 323.374 138.328 313.808 147.273 313.589C154.496 313.484 159.139 322.132 158.054 328.349Z" fill="#FCE2D7" stroke="#2B2B2B" stroke-linecap="round" stroke-linejoin="round"/>
<path d="M157.923 329.564C154.994 328.025 151.409 330.377 149.809 329.783C147.684 328.987 146.206 321.852 146.206 321.852C146.206 321.852 143.085 329.179 138.101 328.9C135.705 328.769 134.944 329.214 134.603 329.774C134.603 330.185 134.533 330.596 134.507 331.007C134.114 339.961 138.695 346.65 144.851 346.108C152.353 345.417 156.778 336.454 157.923 329.564Z" fill="#FCE2D7" stroke="#2B2B2B" stroke-linecap="round" stroke-linejoin="round"/>
<path d="M178.462 322.525C176.941 329.722 172.342 338.999 165.557 341.762C160.835 343.668 157.127 337.442 158.054 328.41C158.797 321.135 162.671 311.797 170.296 310.284C175.857 309.112 180.246 314.096 178.462 322.525Z" fill="#FCE2D7" stroke="#2B2B2B" stroke-linecap="round" stroke-linejoin="round"/>
<path d="M178.209 323.645C175.804 322.831 172.595 325.726 171.345 325.393C169.692 324.974 168.975 318.32 168.975 318.32C168.975 318.32 167.227 326.137 162.181 325.953C159.733 325.857 158.684 326.504 158.229 327.116C158.159 327.536 158.098 327.99 158.054 328.375C157.084 337.442 160.8 343.616 165.557 341.727C172.088 339.147 176.399 330.474 178.209 323.645Z" fill="#FCE2D7" stroke="#2B2B2B" stroke-linecap="round" stroke-linejoin="round"/>
<path d="M102.33 350.051C103.204 357.973 100.677 363.849 96.4974 361.864C90.1843 358.874 85.2003 350.934 83.163 344.088C80.9595 336.664 84.4746 332.257 90.2193 333.464C97.3368 334.959 101.586 343.135 102.33 350.051Z" fill="#FCE2D7" stroke="#2B2B2B" stroke-linecap="round" stroke-linejoin="round"/>
<path d="M102.4 351.083C99.3131 348.687 96.5325 349.579 95.0898 348.661C93.1836 347.445 90.6129 340.791 90.6129 340.791C90.6129 340.791 90.8665 347.472 86.1185 344.499C83.8364 343.065 83.0932 342.864 82.9095 343.117C82.9882 343.458 83.0669 343.799 83.1631 344.149C85.2004 350.995 90.1582 358.935 96.4975 361.925C100.493 363.762 102.837 358.419 102.4 351.083Z" fill="#FCE2D7" stroke="#2B2B2B" stroke-linecap="round" stroke-linejoin="round"/>
<path d="M124.163 350.917C123.892 358.891 120.447 364.662 114.755 364.461C109.062 364.26 103.187 357.982 102.33 350.051C101.473 342.12 106.194 335.431 112.709 335.423C120.394 335.405 124.39 344.018 124.163 350.917Z" fill="#FCE2D7" stroke="#2B2B2B" stroke-linecap="round" stroke-linejoin="round"/>
<path d="M124.093 351.957C121.356 349.684 117.972 351.004 116.39 350.366C114.309 349.492 112.271 343.056 112.271 343.056C112.271 343.056 111.397 350.165 106.002 348.923C103.379 348.329 102.504 348.556 102.251 348.967C102.251 349.325 102.251 349.684 102.33 350.06C103.204 357.991 109.071 364.269 114.755 364.47C120.202 364.653 123.533 359.407 124.093 351.957Z" fill="#FCE2D7" stroke="#2B2B2B" stroke-linecap="round" stroke-linejoin="round"/>
<path d="M144.501 350.646C143.207 358.821 136.011 365.257 132.172 365.222C128.334 365.187 123.944 358.944 124.163 350.917C124.382 342.89 129.514 336.314 134.516 335.851C139.517 335.388 145.795 342.461 144.501 350.646Z" fill="#FCE2D7" stroke="#2B2B2B" stroke-linecap="round" stroke-linejoin="round"/>
<path d="M144.291 351.695C141.371 349.745 136.885 351.459 135.705 350.899C134.149 350.156 133.493 343.633 133.493 343.633C133.493 343.633 131.394 350.794 127.477 349.649C125.588 349.089 124.565 349.378 124.224 349.815C124.224 350.182 124.172 350.55 124.163 350.917C123.944 358.944 128.334 365.187 132.172 365.222C135.845 365.257 142.639 359.346 144.291 351.695Z" fill="#FCE2D7" stroke="#2B2B2B" stroke-linecap="round" stroke-linejoin="round"/>
<path d="M164.612 346.064C162.584 352.604 157.897 360.482 151.496 362.835C147.002 364.478 143.181 358.804 144.501 350.646C145.691 343.222 150.718 335.519 157.801 333.254C163.449 331.453 167.034 338.282 164.612 346.064Z" fill="#FCE2D7" stroke="#2B2B2B" stroke-linecap="round" stroke-linejoin="round"/>
<path d="M164.28 347.087C162.313 346.003 159.034 348.267 157.862 347.961C156.297 347.533 155.991 341.29 155.991 341.29C155.991 341.29 153.962 349.037 148.795 348.792C146.311 348.678 145.175 349.046 144.72 349.526C144.641 349.902 144.562 350.278 144.501 350.663C143.207 358.839 146.661 364.33 151.496 362.852C156.174 361.418 161.674 354.58 164.28 347.087Z" fill="#FCE2D7" stroke="#2B2B2B" stroke-linecap="round" stroke-linejoin="round"/>
<path d="M180.99 336.017C177.451 343.008 172.672 349.298 166.886 354.58C163.388 357.632 162.269 353.977 164.612 346.099C166.781 338.841 171.109 330.815 177.728 327.09C182.8 324.204 184.758 328.681 180.99 336.017Z" fill="#FCE2D7" stroke="#2B2B2B" stroke-linecap="round" stroke-linejoin="round"/>
<path d="M180.474 336.996C179.494 336.795 176.355 339.856 175.516 340.013C174.397 340.214 175.201 334.767 175.201 334.767C175.201 334.767 172.158 342.094 168.267 343.318C166.396 343.913 165.408 344.429 164.971 344.988C164.848 345.356 164.726 345.723 164.612 346.09C162.26 353.96 163.406 357.623 166.886 354.572C172.254 349.832 176.889 343.406 180.474 336.996Z" fill="#FCE2D7" stroke="#2B2B2B" stroke-linecap="round" stroke-linejoin="round"/>
<path d="M90.0094 238.75L107.27 246.008C119.774 251.254 133.781 264.011 138.284 284.524C142.787 305.038 137.034 327.789 129.068 340.59C121.103 353.391 109.307 361.575 90.0444 368.098C70.7816 374.621 55.2787 373.345 41.2798 367.854C27.2808 362.362 18.7643 355.612 15.0481 348.844C11.332 342.077 3.97839 310.529 14.5235 287.025C25.0686 263.522 52.5419 253.51 65.0456 249.252C73.5654 246.243 81.901 242.737 90.0094 238.75Z" fill="#285E67" stroke="#2B2B2B" stroke-linecap="round" stroke-linejoin="round"/>
<path d="M127.529 277.521C124.032 268.777 122.283 261.511 116.775 256.255C111.266 251 99.7677 245.282 95.5181 242.501C91.2686 239.721 90.7615 238.75 88.2607 238.75C85.76 238.75 84.7632 238.252 84.0112 238.75C83.2159 239.367 82.4623 240.036 81.7553 240.753C81.7553 240.753 74.7602 240.254 73.0114 239.747C71.2626 239.24 69.5138 237.246 66.0163 238.497C62.5187 239.747 61.2684 238.497 52.0261 241.994C42.7838 245.492 37.485 246.253 28.5138 252.277C19.5426 258.302 9.5046 273.533 6.25187 279.287C2.99915 285.04 0 306.297 0 314.306C0 322.316 6.25188 339.812 9.0062 343.817C11.7605 347.821 27.5082 359.075 38.0184 363.053C48.5285 367.032 63.0259 367.556 70.7817 365.309C78.5375 363.062 88.5405 361.051 99.5403 352.805C110.54 344.56 121.549 322.788 125.553 313.781C129.558 304.775 131.027 286.273 127.529 277.521Z" fill="#2B2B2B"/>
<path d="M75.5034 242.257C75.5034 242.257 75.1798 242.169 74.5853 242.064C69.1541 241.122 63.5839 241.357 58.2517 242.755C49.2455 245.256 36.4882 250.257 29.4843 255.512C22.4805 260.767 10.4752 277.267 6.9776 286.518C3.48005 295.769 2.9729 314.289 4.47685 321.791C5.9808 329.293 8.22797 340.59 21.5187 349.553C34.8094 358.515 51.0293 365.554 59.2835 364.059C67.5377 362.564 80.0414 357.807 87.0453 355.053C94.0491 352.298 108.809 335.816 113.557 328.288C118.305 320.759 122.301 305.029 122.301 289.526C122.301 274.023 117.553 262.009 112.551 256.011C107.55 250.012 94.294 244.757 88.5405 243.769C82.787 242.781 75.5034 242.257 75.5034 242.257Z" fill="#F4F4F4"/>
<path d="M122.274 289.526C122.281 285.423 121.933 281.327 121.234 277.285C117.789 271.61 109.395 259.106 104.271 258.249C98.2637 257.261 75.7307 255.512 75.7307 255.512L59.4759 257.007C59.4759 257.007 52.3671 261.703 47.9777 264.877C57.1803 266.553 65.7494 270.714 72.7578 276.909C85.2179 288.276 85.2178 310.328 79.8404 320.532C74.4629 330.736 63.979 338.938 50.662 339.768C43.3266 340.207 35.966 339.947 28.6799 338.99C29.1676 340.276 29.9597 341.426 30.9883 342.339C37.7386 349.089 40.4929 357.343 61.2509 359.346C65.0894 359.722 69.3215 359.94 73.6847 360.037C78.6862 358.288 83.5303 356.46 87.0103 355.096C94.0054 352.342 108.774 335.86 113.522 328.331C118.27 320.803 122.274 305.029 122.274 289.526Z" fill="#F4F4F4"/>
<path d="M75.5034 242.257C75.5034 242.257 75.1798 242.169 74.5853 242.064C69.1541 241.122 63.5839 241.357 58.2517 242.755C49.2455 245.256 36.4882 250.257 29.4843 255.512C22.4805 260.767 10.4752 277.267 6.9776 286.518C3.48005 295.769 2.9729 314.289 4.47685 321.791C5.9808 329.293 8.22797 340.59 21.5187 349.553C26.2118 352.741 31.1267 355.59 36.2259 358.078C37.9453 355.615 39.4546 353.012 40.7377 350.296C42.7401 346.046 43.7456 344.796 42.9936 342.794C42.2417 340.791 40.9913 337.04 40.9913 337.04C36.7646 335.63 33.0378 333.024 30.2625 329.538C25.7594 323.784 21.2563 306.279 21.2563 304.277C21.2563 302.275 20.5044 302.275 21.5099 297.527C22.5544 292.997 23.9759 288.563 25.7594 284.271C26.7562 282.024 26.5114 281.517 29.0122 279.025C30.6014 277.347 32.3595 275.838 34.2585 274.521C39.7107 271.283 45.3884 268.439 51.2479 266.014C55.9958 264.265 61.7405 262.761 63.2532 262.263C64.7659 261.764 64.7484 261.012 66.7507 261.012C69.4363 261.203 72.0645 261.881 74.5066 263.015C76.5089 264.011 75.2585 264.265 77.7593 264.265H82.0088C82.6814 264.297 83.3506 264.379 84.0112 264.51C86.5255 261.137 88.8604 257.635 91.0063 254.017C93.0086 250.266 94.0054 247.267 94.0054 246.515C94.0054 246.121 93.4633 245.466 92.9474 244.915C91.4926 244.437 90.009 244.051 88.5055 243.761C82.7258 242.755 75.5034 242.257 75.5034 242.257Z" fill="#F4F4F4"/>
<path d="M77.7594 264.265L76.0106 264.072C76.5698 264.275 77.1695 264.341 77.7594 264.265Z" fill="#999999"/>
<path d="M94.0142 246.506C94.0142 246.113 93.4721 245.457 92.9562 244.906C91.5014 244.428 90.0178 244.042 88.5143 243.752C84.6932 243.087 80.2339 242.65 77.6544 242.423L79.7617 244.005C80.7585 244.757 84.0112 246.008 83.0057 247.258C80.8802 249.74 79.4955 252.77 79.0097 256.002C78.0042 261.248 77.7594 264.256 77.7594 264.256H82.0089C82.6814 264.289 83.3507 264.37 84.0112 264.501C86.5255 261.129 88.8605 257.626 91.0063 254.008C93.0174 250.257 94.0142 247.258 94.0142 246.506Z" fill="#F4F4F4"/>
<path d="M113.522 328.288C118.278 320.785 122.266 305.029 122.266 289.526C122.266 274.023 117.518 262.009 112.516 256.011C108.599 251.315 99.6365 247.083 93.166 244.985C92.6239 246.427 89.3537 255.031 87.7536 258.013C86.0048 261.257 85.2528 265.262 85.7512 266.512C86.2496 267.762 91.5047 270.762 96.0078 272.266C100.511 273.769 100.756 272.764 102.006 275.265C103.256 277.765 103.755 278.273 104.262 281.272C104.769 284.271 105.757 297.273 105.757 300.508C105.757 303.743 104.262 310.765 103.764 312.269C103.265 313.773 102.513 316.265 102.015 317.769C101.516 319.273 100.52 321.773 99.5141 322.018C98.5085 322.263 95.5181 324.773 94.0142 325.769C92.5102 326.766 93.2622 326.521 90.5166 328.777C87.771 331.033 81.7727 336.279 79.5081 337.521C77.2434 338.763 77.0073 340.267 73.7546 340.774C70.5019 341.281 69.0067 342.024 67.2492 342.024H61.7405C59.4933 342.024 57.9894 342.269 55.987 342.269C53.9847 342.269 53.7399 342.767 52.4895 342.269C51.2391 341.771 48.2312 341.019 45.984 339.768C43.7369 338.518 44.9872 338.771 41.9794 337.268C38.9715 335.764 35.9811 345.023 36.2259 346.011C36.4707 346.999 37.7298 346.763 37.7298 347.76C37.7298 348.757 37.7298 350.768 36.733 351.013C35.7362 351.258 33.2355 355.77 33.2355 355.77C33.2355 355.77 33.2355 356.084 33.3229 356.583C43.3784 361.829 53.3551 365.091 59.2485 364.024C67.5027 362.52 80.0065 357.772 87.0103 355.018C94.0142 352.263 108.774 335.79 113.522 328.288Z" fill="#F4F4F4"/>
<path d="M21.9821 284.524L8.92748 282.234C8.48154 283.108 8.05309 283.93 7.72083 284.726L21.9821 284.524Z" fill="#F4F4F4"/>
<path d="M4.8528 295.122C4.75662 295.752 4.66044 296.399 4.573 297.054L20.2333 296.25L4.8528 295.122Z" fill="#F4F4F4"/>
<path d="M4.03093 302.484C3.96972 303.254 3.91725 304.032 3.87354 304.802L17.7588 302.275L4.03093 302.484Z" fill="#F4F4F4"/>
<path d="M3.82985 305.134C3.82985 306.078 3.74242 307.022 3.71619 307.958L18.983 304.277L3.82985 305.134Z" fill="#F4F4F4"/>
<path d="M18.0211 346.973C18.9888 347.778 20.0322 348.565 21.1514 349.334L26.2054 342.794L18.0211 346.973Z" fill="#F4F4F4"/>
<path d="M40.7552 262.507L34.4945 252.277C33.8125 252.662 33.148 253.046 32.5184 253.44L40.7552 262.507Z" fill="#F4F4F4"/>
<path d="M18.7295 314.035L3.86487 316.571C3.93482 317.603 4.02226 318.564 4.12719 319.439L18.7295 314.035Z" fill="#F4F4F4"/>
<path d="M4.98401 324.248C5.16763 325.122 5.37748 325.997 5.61357 326.958L21.5187 320.785L4.98401 324.248Z" fill="#F4F4F4"/>
<path d="M25.4796 281.018L14.0251 273.673C13.3955 274.618 12.7835 275.571 12.1976 276.515L25.4796 281.018Z" fill="#F4F4F4"/>
<path d="M9.6969 337.206C10.1079 337.906 10.5713 338.614 11.026 339.314L26.9835 329.538L9.6969 337.206Z" fill="#F4F4F4"/>
<path d="M24.4828 325.542L6.01575 328.436C6.35676 329.599 6.75024 330.806 7.22241 332.03L24.4828 325.542Z" fill="#F4F4F4"/>
<path d="M41.8481 248.657L48.9919 260.26L43.3259 248.019L41.8481 248.657Z" fill="#F4F4F4"/>
<path d="M49.0881 245.728C48.3886 245.981 47.6891 246.252 46.9808 246.524L51.2478 252.006L49.0881 245.728Z" fill="#F4F4F4"/>
<path d="M56.6604 243.21L62.0029 259.01C62.0029 259.01 59.2049 246.908 58.1206 242.79L56.6604 243.21Z" fill="#F4F4F4"/>
<path d="M26.4852 346.798L21.6848 349.684C22.5592 350.243 23.3636 350.786 24.2205 351.336L26.4852 346.798Z" fill="#F4F4F4"/>
<path d="M11.5857 340.109C12.3225 341.13 13.1135 342.111 13.9553 343.047L24.7365 335.291L11.5857 340.109Z" fill="#F4F4F4"/>
<path d="M23.3549 261.449C22.5417 262.367 21.711 263.338 20.8804 264.361L34.241 271.269L23.3549 261.449Z" fill="#F4F4F4"/>
<path d="M29.8954 255.215C29.7555 255.32 29.6156 255.407 29.4844 255.512C29.1784 255.74 28.8636 255.993 28.5488 256.264L40.493 267.762L29.8954 255.215Z" fill="#F4F4F4"/>
<path d="M115.244 259.945C114.449 258.56 113.54 257.244 112.525 256.011C112.403 255.862 112.263 255.722 112.131 255.582L108.52 264.518L115.244 259.945Z" fill="#F4F4F4"/>
<path d="M100.38 344.21C96.7947 346.781 92.5102 349.797 92.5102 349.797L90.5166 346.798L91.1724 352.561C94.449 350.015 97.527 347.223 100.38 344.21Z" fill="#F4F4F4"/>
<path d="M90.8489 352.832L84.7281 345.329L86.2234 355.367L87.0365 355.053C88.3926 354.469 89.6728 353.724 90.8489 352.832Z" fill="#F4F4F4"/>
<path d="M64.8707 362.738C66.3484 362.336 67.8699 361.864 69.4088 361.401L66.5058 348.285L64.8707 362.738Z" fill="#F4F4F4"/>
<path d="M55.2787 364.199L55.4973 359.066L53.9409 364.067C54.4043 364.111 54.8503 364.199 55.2787 364.199Z" fill="#F4F4F4"/>
<path d="M115.524 264.518L112.77 266.521H118.278L116.022 268.016C116.022 268.016 116.774 267.762 116.774 269.013C117.003 271.031 117.336 273.036 117.771 275.02L119.275 278.273C120.18 278.787 120.993 279.449 121.68 280.231C120.986 274.468 119.442 268.84 117.098 263.53L115.524 264.518Z" fill="#F4F4F4"/>
<path d="M117.028 308.282C115.524 312.531 114.772 317.025 113.023 319.037C111.275 321.048 110.523 327.291 109.771 328.795C109.019 330.299 109.517 330.544 107.768 333.543C107.073 334.833 106.589 336.226 106.334 337.67C108.934 334.704 111.335 331.57 113.522 328.288C118.278 320.785 122.266 305.029 122.266 289.526C122.269 286.668 122.103 283.813 121.767 280.974V287.524L119.267 290.024L120.77 293.024L119.267 294.527C119.267 294.527 118.523 304.032 117.028 308.282Z" fill="#F4F4F4"/>
<path d="M85.76 266.512C86.2584 267.762 91.5134 270.762 96.0165 272.266C99.0856 273.289 100.179 273.14 100.957 273.752C100.834 273.402 100.642 273.149 100.52 272.764C100.266 272.012 98.7709 270.263 97.2669 268.768C95.8336 267.438 94.3304 266.186 92.7638 265.017C92.7638 265.017 87.7623 263.513 86.5119 263.758C85.996 263.863 85.7425 264.553 85.6375 265.332C85.607 265.729 85.6485 266.129 85.76 266.512Z" fill="#F4F4F4"/>
</svg>
